<mxfile host="app.diagrams.net" modified="2023-06-17T16:33:39.995Z" agent="Mozilla/5.0 (Windows NT 10.0; Win64; x64) AppleWebKit/537.36 (KHTML, like Gecko) Chrome/114.0.0.0 Safari/537.36" etag="O0eXRScNEvOzE5SR4TSL" version="21.3.8" type="device">
  <diagram id="C5RBs43oDa-KdzZeNtuy" name="Page-1">
    <mxGraphModel dx="1147" dy="637" grid="1" gridSize="10" guides="1" tooltips="1" connect="1" arrows="1" fold="1" page="1" pageScale="1" pageWidth="827" pageHeight="1169" math="0" shadow="0">
      <root>
        <mxCell id="WIyWlLk6GJQsqaUBKTNV-0" />
        <mxCell id="WIyWlLk6GJQsqaUBKTNV-1" parent="WIyWlLk6GJQsqaUBKTNV-0" />
        <mxCell id="WIyWlLk6GJQsqaUBKTNV-2" value="" style="rounded=0;html=1;jettySize=auto;orthogonalLoop=1;fontSize=11;endArrow=block;endFill=0;endSize=8;strokeWidth=1;shadow=0;labelBackgroundColor=none;edgeStyle=orthogonalEdgeStyle;exitX=0.557;exitY=1.007;exitDx=0;exitDy=0;exitPerimeter=0;" parent="WIyWlLk6GJQsqaUBKTNV-1" source="nd2t0F2UOYA8sy0b7LYU-1" target="WIyWlLk6GJQsqaUBKTNV-6" edge="1">
          <mxGeometry relative="1" as="geometry">
            <mxPoint x="220" y="120" as="sourcePoint" />
          </mxGeometry>
        </mxCell>
        <mxCell id="nd2t0F2UOYA8sy0b7LYU-115" style="edgeStyle=orthogonalEdgeStyle;rounded=0;orthogonalLoop=1;jettySize=auto;html=1;" edge="1" parent="WIyWlLk6GJQsqaUBKTNV-1" source="WIyWlLk6GJQsqaUBKTNV-6" target="WIyWlLk6GJQsqaUBKTNV-12">
          <mxGeometry relative="1" as="geometry" />
        </mxCell>
        <mxCell id="nd2t0F2UOYA8sy0b7LYU-116" value="Da" style="edgeLabel;html=1;align=center;verticalAlign=middle;resizable=0;points=[];" vertex="1" connectable="0" parent="nd2t0F2UOYA8sy0b7LYU-115">
          <mxGeometry x="-0.1666" y="-1" relative="1" as="geometry">
            <mxPoint as="offset" />
          </mxGeometry>
        </mxCell>
        <mxCell id="nd2t0F2UOYA8sy0b7LYU-117" style="edgeStyle=orthogonalEdgeStyle;rounded=0;orthogonalLoop=1;jettySize=auto;html=1;entryX=0.014;entryY=0.498;entryDx=0;entryDy=0;entryPerimeter=0;" edge="1" parent="WIyWlLk6GJQsqaUBKTNV-1" source="WIyWlLk6GJQsqaUBKTNV-6" target="WIyWlLk6GJQsqaUBKTNV-7">
          <mxGeometry relative="1" as="geometry" />
        </mxCell>
        <mxCell id="nd2t0F2UOYA8sy0b7LYU-118" value="Nu" style="edgeLabel;html=1;align=center;verticalAlign=middle;resizable=0;points=[];" vertex="1" connectable="0" parent="nd2t0F2UOYA8sy0b7LYU-117">
          <mxGeometry x="-0.1281" relative="1" as="geometry">
            <mxPoint x="-1" as="offset" />
          </mxGeometry>
        </mxCell>
        <mxCell id="WIyWlLk6GJQsqaUBKTNV-6" value="User logat" style="rhombus;whiteSpace=wrap;html=1;shadow=0;fontFamily=Helvetica;fontSize=12;align=center;strokeWidth=1;spacing=6;spacingTop=-4;" parent="WIyWlLk6GJQsqaUBKTNV-1" vertex="1">
          <mxGeometry x="280" y="110" width="100" height="80" as="geometry" />
        </mxCell>
        <mxCell id="WIyWlLk6GJQsqaUBKTNV-7" value="Pagina de logare" style="rounded=1;whiteSpace=wrap;html=1;fontSize=12;glass=0;strokeWidth=1;shadow=0;" parent="WIyWlLk6GJQsqaUBKTNV-1" vertex="1">
          <mxGeometry x="500" y="170" width="120" height="40" as="geometry" />
        </mxCell>
        <mxCell id="nd2t0F2UOYA8sy0b7LYU-121" style="edgeStyle=orthogonalEdgeStyle;rounded=0;orthogonalLoop=1;jettySize=auto;html=1;entryX=0;entryY=0.5;entryDx=0;entryDy=0;" edge="1" parent="WIyWlLk6GJQsqaUBKTNV-1" source="WIyWlLk6GJQsqaUBKTNV-11" target="nd2t0F2UOYA8sy0b7LYU-4">
          <mxGeometry relative="1" as="geometry" />
        </mxCell>
        <mxCell id="nd2t0F2UOYA8sy0b7LYU-127" style="edgeStyle=orthogonalEdgeStyle;rounded=0;orthogonalLoop=1;jettySize=auto;html=1;entryX=1;entryY=0.5;entryDx=0;entryDy=0;" edge="1" parent="WIyWlLk6GJQsqaUBKTNV-1" source="WIyWlLk6GJQsqaUBKTNV-11" target="nd2t0F2UOYA8sy0b7LYU-5">
          <mxGeometry relative="1" as="geometry" />
        </mxCell>
        <mxCell id="WIyWlLk6GJQsqaUBKTNV-11" value="Alege un modulul de lecții - „story”" style="rounded=1;whiteSpace=wrap;html=1;fontSize=12;glass=0;strokeWidth=1;shadow=0;" parent="WIyWlLk6GJQsqaUBKTNV-1" vertex="1">
          <mxGeometry x="280" y="270" width="120" height="40" as="geometry" />
        </mxCell>
        <mxCell id="nd2t0F2UOYA8sy0b7LYU-120" style="edgeStyle=orthogonalEdgeStyle;rounded=0;orthogonalLoop=1;jettySize=auto;html=1;" edge="1" parent="WIyWlLk6GJQsqaUBKTNV-1" source="WIyWlLk6GJQsqaUBKTNV-12" target="WIyWlLk6GJQsqaUBKTNV-11">
          <mxGeometry relative="1" as="geometry">
            <Array as="points">
              <mxPoint x="149" y="240" />
              <mxPoint x="320" y="240" />
            </Array>
          </mxGeometry>
        </mxCell>
        <mxCell id="WIyWlLk6GJQsqaUBKTNV-12" value="Alege limbă de învățat" style="rounded=1;whiteSpace=wrap;html=1;fontSize=12;glass=0;strokeWidth=1;shadow=0;" parent="WIyWlLk6GJQsqaUBKTNV-1" vertex="1">
          <mxGeometry x="88.69999999999999" y="170" width="120" height="40" as="geometry" />
        </mxCell>
        <mxCell id="nd2t0F2UOYA8sy0b7LYU-1" value="Start" style="ellipse;whiteSpace=wrap;html=1;" vertex="1" parent="WIyWlLk6GJQsqaUBKTNV-1">
          <mxGeometry x="280" y="10" width="90" height="60" as="geometry" />
        </mxCell>
        <mxCell id="nd2t0F2UOYA8sy0b7LYU-4" value="Selectează unul dintre blocurile de initiere pe cuvinte" style="rounded=1;whiteSpace=wrap;html=1;fontSize=12;glass=0;strokeWidth=1;shadow=0;" vertex="1" parent="WIyWlLk6GJQsqaUBKTNV-1">
          <mxGeometry x="491.2" y="265" width="158.8" height="50" as="geometry" />
        </mxCell>
        <mxCell id="nd2t0F2UOYA8sy0b7LYU-5" value="Selectează blocul epilog - de ințelegere a textului final" style="rounded=1;whiteSpace=wrap;html=1;fontSize=12;glass=0;strokeWidth=1;shadow=0;" vertex="1" parent="WIyWlLk6GJQsqaUBKTNV-1">
          <mxGeometry x="30" y="262.5" width="175" height="55" as="geometry" />
        </mxCell>
        <mxCell id="nd2t0F2UOYA8sy0b7LYU-8" value="Ascultă text povestire scurtă" style="rounded=1;whiteSpace=wrap;html=1;fontSize=12;glass=0;strokeWidth=1;shadow=0;" vertex="1" parent="WIyWlLk6GJQsqaUBKTNV-1">
          <mxGeometry x="148.7" y="405" width="165" height="60" as="geometry" />
        </mxCell>
        <mxCell id="nd2t0F2UOYA8sy0b7LYU-12" style="edgeStyle=orthogonalEdgeStyle;rounded=0;orthogonalLoop=1;jettySize=auto;html=1;entryX=0.604;entryY=0.004;entryDx=0;entryDy=0;entryPerimeter=0;" edge="1" parent="WIyWlLk6GJQsqaUBKTNV-1" source="nd2t0F2UOYA8sy0b7LYU-10" target="nd2t0F2UOYA8sy0b7LYU-13">
          <mxGeometry relative="1" as="geometry">
            <mxPoint x="148.7" y="920" as="targetPoint" />
          </mxGeometry>
        </mxCell>
        <mxCell id="nd2t0F2UOYA8sy0b7LYU-10" value="Accesează o întrebare de întelegerea textului din chestionarul blocului" style="rounded=1;whiteSpace=wrap;html=1;fontSize=12;glass=0;strokeWidth=1;shadow=0;" vertex="1" parent="WIyWlLk6GJQsqaUBKTNV-1">
          <mxGeometry x="43.69999999999999" y="640" width="165" height="60" as="geometry" />
        </mxCell>
        <mxCell id="nd2t0F2UOYA8sy0b7LYU-15" value="" style="edgeStyle=orthogonalEdgeStyle;rounded=0;orthogonalLoop=1;jettySize=auto;html=1;" edge="1" parent="WIyWlLk6GJQsqaUBKTNV-1" source="nd2t0F2UOYA8sy0b7LYU-13" target="nd2t0F2UOYA8sy0b7LYU-14">
          <mxGeometry relative="1" as="geometry" />
        </mxCell>
        <mxCell id="nd2t0F2UOYA8sy0b7LYU-13" value="Selectează o variantă de răspuns" style="rounded=1;whiteSpace=wrap;html=1;fontSize=12;glass=0;strokeWidth=1;shadow=0;" vertex="1" parent="WIyWlLk6GJQsqaUBKTNV-1">
          <mxGeometry x="29.999999999999986" y="770" width="165" height="60" as="geometry" />
        </mxCell>
        <mxCell id="nd2t0F2UOYA8sy0b7LYU-18" value="" style="edgeStyle=orthogonalEdgeStyle;rounded=0;orthogonalLoop=1;jettySize=auto;html=1;entryX=0;entryY=0.5;entryDx=0;entryDy=0;" edge="1" parent="WIyWlLk6GJQsqaUBKTNV-1" source="nd2t0F2UOYA8sy0b7LYU-14" target="nd2t0F2UOYA8sy0b7LYU-24">
          <mxGeometry relative="1" as="geometry" />
        </mxCell>
        <mxCell id="nd2t0F2UOYA8sy0b7LYU-19" value="Da" style="edgeLabel;html=1;align=center;verticalAlign=middle;resizable=0;points=[];" vertex="1" connectable="0" parent="nd2t0F2UOYA8sy0b7LYU-18">
          <mxGeometry x="0.0017" relative="1" as="geometry">
            <mxPoint as="offset" />
          </mxGeometry>
        </mxCell>
        <mxCell id="nd2t0F2UOYA8sy0b7LYU-37" value="" style="edgeStyle=orthogonalEdgeStyle;rounded=0;orthogonalLoop=1;jettySize=auto;html=1;" edge="1" parent="WIyWlLk6GJQsqaUBKTNV-1" source="nd2t0F2UOYA8sy0b7LYU-14" target="nd2t0F2UOYA8sy0b7LYU-36">
          <mxGeometry relative="1" as="geometry" />
        </mxCell>
        <mxCell id="nd2t0F2UOYA8sy0b7LYU-23" value="" style="edgeStyle=orthogonalEdgeStyle;rounded=0;orthogonalLoop=1;jettySize=auto;html=1;" edge="1" parent="WIyWlLk6GJQsqaUBKTNV-1" source="nd2t0F2UOYA8sy0b7LYU-17" target="nd2t0F2UOYA8sy0b7LYU-22">
          <mxGeometry relative="1" as="geometry">
            <Array as="points">
              <mxPoint x="611.7" y="1150" />
              <mxPoint x="611.7" y="1150" />
            </Array>
          </mxGeometry>
        </mxCell>
        <mxCell id="nd2t0F2UOYA8sy0b7LYU-32" value="Da" style="edgeLabel;html=1;align=center;verticalAlign=middle;resizable=0;points=[];" vertex="1" connectable="0" parent="nd2t0F2UOYA8sy0b7LYU-23">
          <mxGeometry x="0.2296" y="2" relative="1" as="geometry">
            <mxPoint as="offset" />
          </mxGeometry>
        </mxCell>
        <mxCell id="nd2t0F2UOYA8sy0b7LYU-52" style="edgeStyle=orthogonalEdgeStyle;rounded=0;orthogonalLoop=1;jettySize=auto;html=1;entryX=1;entryY=0.5;entryDx=0;entryDy=0;" edge="1" parent="WIyWlLk6GJQsqaUBKTNV-1" source="nd2t0F2UOYA8sy0b7LYU-17" target="nd2t0F2UOYA8sy0b7LYU-45">
          <mxGeometry relative="1" as="geometry">
            <Array as="points">
              <mxPoint x="736.2" y="995" />
              <mxPoint x="736.2" y="730" />
            </Array>
          </mxGeometry>
        </mxCell>
        <mxCell id="nd2t0F2UOYA8sy0b7LYU-53" value="Nu" style="edgeLabel;html=1;align=center;verticalAlign=middle;resizable=0;points=[];" vertex="1" connectable="0" parent="nd2t0F2UOYA8sy0b7LYU-52">
          <mxGeometry x="0.15" y="1" relative="1" as="geometry">
            <mxPoint as="offset" />
          </mxGeometry>
        </mxCell>
        <mxCell id="nd2t0F2UOYA8sy0b7LYU-17" value="Utilizatorul a răspuns &lt;br&gt;în mod consistent la &lt;br&gt;toate întrebările de acum" style="rhombus;whiteSpace=wrap;html=1;rounded=1;glass=0;strokeWidth=1;shadow=0;" vertex="1" parent="WIyWlLk6GJQsqaUBKTNV-1">
          <mxGeometry x="518.7" y="910" width="185" height="170" as="geometry" />
        </mxCell>
        <mxCell id="nd2t0F2UOYA8sy0b7LYU-28" value="" style="edgeStyle=orthogonalEdgeStyle;rounded=0;orthogonalLoop=1;jettySize=auto;html=1;" edge="1" parent="WIyWlLk6GJQsqaUBKTNV-1" source="nd2t0F2UOYA8sy0b7LYU-22" target="nd2t0F2UOYA8sy0b7LYU-27">
          <mxGeometry relative="1" as="geometry" />
        </mxCell>
        <mxCell id="nd2t0F2UOYA8sy0b7LYU-22" value="Marchează blocul ca finalizat" style="whiteSpace=wrap;html=1;rounded=1;glass=0;strokeWidth=1;shadow=0;" vertex="1" parent="WIyWlLk6GJQsqaUBKTNV-1">
          <mxGeometry x="551.2" y="1215" width="120" height="60" as="geometry" />
        </mxCell>
        <mxCell id="nd2t0F2UOYA8sy0b7LYU-25" style="edgeStyle=orthogonalEdgeStyle;rounded=0;orthogonalLoop=1;jettySize=auto;html=1;entryX=0.5;entryY=0;entryDx=0;entryDy=0;" edge="1" parent="WIyWlLk6GJQsqaUBKTNV-1" source="nd2t0F2UOYA8sy0b7LYU-24" target="nd2t0F2UOYA8sy0b7LYU-17">
          <mxGeometry relative="1" as="geometry" />
        </mxCell>
        <mxCell id="nd2t0F2UOYA8sy0b7LYU-24" value="Actualizează starea chestionarului cu un raspuns corect" style="rounded=1;whiteSpace=wrap;html=1;fontSize=12;glass=0;strokeWidth=1;shadow=0;" vertex="1" parent="WIyWlLk6GJQsqaUBKTNV-1">
          <mxGeometry x="328.7" y="1155" width="165" height="60" as="geometry" />
        </mxCell>
        <mxCell id="nd2t0F2UOYA8sy0b7LYU-30" value="" style="edgeStyle=orthogonalEdgeStyle;rounded=0;orthogonalLoop=1;jettySize=auto;html=1;" edge="1" parent="WIyWlLk6GJQsqaUBKTNV-1" source="nd2t0F2UOYA8sy0b7LYU-27" target="nd2t0F2UOYA8sy0b7LYU-29">
          <mxGeometry relative="1" as="geometry" />
        </mxCell>
        <mxCell id="nd2t0F2UOYA8sy0b7LYU-27" value="Marchează „story”-ul ca finalizat" style="whiteSpace=wrap;html=1;rounded=1;glass=0;strokeWidth=1;shadow=0;" vertex="1" parent="WIyWlLk6GJQsqaUBKTNV-1">
          <mxGeometry x="551.2" y="1355" width="120" height="60" as="geometry" />
        </mxCell>
        <mxCell id="nd2t0F2UOYA8sy0b7LYU-29" value="Deblochează „story”-dependente" style="whiteSpace=wrap;html=1;rounded=1;glass=0;strokeWidth=1;shadow=0;" vertex="1" parent="WIyWlLk6GJQsqaUBKTNV-1">
          <mxGeometry x="351.2" y="1355" width="120" height="60" as="geometry" />
        </mxCell>
        <mxCell id="nd2t0F2UOYA8sy0b7LYU-56" style="edgeStyle=orthogonalEdgeStyle;rounded=0;orthogonalLoop=1;jettySize=auto;html=1;entryX=0.367;entryY=1.033;entryDx=0;entryDy=0;entryPerimeter=0;" edge="1" parent="WIyWlLk6GJQsqaUBKTNV-1" source="nd2t0F2UOYA8sy0b7LYU-14" target="nd2t0F2UOYA8sy0b7LYU-45">
          <mxGeometry relative="1" as="geometry">
            <Array as="points" />
          </mxGeometry>
        </mxCell>
        <mxCell id="nd2t0F2UOYA8sy0b7LYU-36" value="&lt;br&gt;&lt;span style=&quot;color: rgb(0, 0, 0); font-family: Helvetica; font-size: 12px; font-style: normal; font-variant-ligatures: normal; font-variant-caps: normal; font-weight: 400; letter-spacing: normal; orphans: 2; text-align: center; text-indent: 0px; text-transform: none; widows: 2; word-spacing: 0px; -webkit-text-stroke-width: 0px; background-color: rgb(251, 251, 251); text-decoration-thickness: initial; text-decoration-style: initial; text-decoration-color: initial; float: none; display: inline !important;&quot;&gt;Actualizează starea chestionarului cu un raspuns gresit&lt;/span&gt;" style="whiteSpace=wrap;html=1;rounded=1;glass=0;strokeWidth=1;shadow=0;" vertex="1" parent="WIyWlLk6GJQsqaUBKTNV-1">
          <mxGeometry x="67.5" y="870" width="120" height="60" as="geometry" />
        </mxCell>
        <mxCell id="nd2t0F2UOYA8sy0b7LYU-43" value="" style="edgeStyle=orthogonalEdgeStyle;rounded=0;orthogonalLoop=1;jettySize=auto;html=1;" edge="1" parent="WIyWlLk6GJQsqaUBKTNV-1" source="nd2t0F2UOYA8sy0b7LYU-40" target="nd2t0F2UOYA8sy0b7LYU-42">
          <mxGeometry relative="1" as="geometry" />
        </mxCell>
        <mxCell id="nd2t0F2UOYA8sy0b7LYU-47" value="Nu" style="edgeLabel;html=1;align=center;verticalAlign=middle;resizable=0;points=[];" vertex="1" connectable="0" parent="nd2t0F2UOYA8sy0b7LYU-43">
          <mxGeometry x="-0.3368" y="-1" relative="1" as="geometry">
            <mxPoint as="offset" />
          </mxGeometry>
        </mxCell>
        <mxCell id="nd2t0F2UOYA8sy0b7LYU-57" style="edgeStyle=orthogonalEdgeStyle;rounded=0;orthogonalLoop=1;jettySize=auto;html=1;entryX=0;entryY=0.5;entryDx=0;entryDy=0;" edge="1" parent="WIyWlLk6GJQsqaUBKTNV-1" source="nd2t0F2UOYA8sy0b7LYU-40" target="nd2t0F2UOYA8sy0b7LYU-10">
          <mxGeometry relative="1" as="geometry" />
        </mxCell>
        <mxCell id="nd2t0F2UOYA8sy0b7LYU-58" value="Da" style="edgeLabel;html=1;align=center;verticalAlign=middle;resizable=0;points=[];" vertex="1" connectable="0" parent="nd2t0F2UOYA8sy0b7LYU-57">
          <mxGeometry x="0.122" y="1" relative="1" as="geometry">
            <mxPoint as="offset" />
          </mxGeometry>
        </mxCell>
        <mxCell id="nd2t0F2UOYA8sy0b7LYU-40" value="Există &lt;br&gt;un chestionar în progress" style="rhombus;whiteSpace=wrap;html=1;rounded=1;glass=0;strokeWidth=1;shadow=0;" vertex="1" parent="WIyWlLk6GJQsqaUBKTNV-1">
          <mxGeometry x="23.69999999999999" y="472.5" width="135" height="130" as="geometry" />
        </mxCell>
        <mxCell id="nd2t0F2UOYA8sy0b7LYU-46" value="" style="edgeStyle=orthogonalEdgeStyle;rounded=0;orthogonalLoop=1;jettySize=auto;html=1;" edge="1" parent="WIyWlLk6GJQsqaUBKTNV-1" source="nd2t0F2UOYA8sy0b7LYU-42" target="nd2t0F2UOYA8sy0b7LYU-45">
          <mxGeometry relative="1" as="geometry" />
        </mxCell>
        <mxCell id="nd2t0F2UOYA8sy0b7LYU-42" value="Crează chestionar" style="whiteSpace=wrap;html=1;rounded=1;glass=0;strokeWidth=1;shadow=0;" vertex="1" parent="WIyWlLk6GJQsqaUBKTNV-1">
          <mxGeometry x="351.2" y="500" width="160" height="75" as="geometry" />
        </mxCell>
        <mxCell id="nd2t0F2UOYA8sy0b7LYU-51" style="edgeStyle=orthogonalEdgeStyle;rounded=0;orthogonalLoop=1;jettySize=auto;html=1;" edge="1" parent="WIyWlLk6GJQsqaUBKTNV-1" source="nd2t0F2UOYA8sy0b7LYU-45" target="nd2t0F2UOYA8sy0b7LYU-10">
          <mxGeometry relative="1" as="geometry" />
        </mxCell>
        <mxCell id="nd2t0F2UOYA8sy0b7LYU-45" value="Crează întrebare" style="whiteSpace=wrap;html=1;rounded=1;glass=0;strokeWidth=1;shadow=0;" vertex="1" parent="WIyWlLk6GJQsqaUBKTNV-1">
          <mxGeometry x="371.2" y="630" width="120" height="60" as="geometry" />
        </mxCell>
        <mxCell id="nd2t0F2UOYA8sy0b7LYU-61" value="Ascultă cuvintele blocului" style="rounded=1;whiteSpace=wrap;html=1;fontSize=12;glass=0;strokeWidth=1;shadow=0;" vertex="1" parent="WIyWlLk6GJQsqaUBKTNV-1">
          <mxGeometry x="1570" y="300" width="165" height="60" as="geometry" />
        </mxCell>
        <mxCell id="nd2t0F2UOYA8sy0b7LYU-129" style="edgeStyle=orthogonalEdgeStyle;rounded=0;orthogonalLoop=1;jettySize=auto;html=1;" edge="1" parent="WIyWlLk6GJQsqaUBKTNV-1" source="nd2t0F2UOYA8sy0b7LYU-79" target="nd2t0F2UOYA8sy0b7LYU-81">
          <mxGeometry relative="1" as="geometry" />
        </mxCell>
        <mxCell id="nd2t0F2UOYA8sy0b7LYU-79" value="Accesează o întrebare de vocabular bazată pe un cuvânt al blocului" style="rounded=1;whiteSpace=wrap;html=1;fontSize=12;glass=0;strokeWidth=1;shadow=0;" vertex="1" parent="WIyWlLk6GJQsqaUBKTNV-1">
          <mxGeometry x="1420" y="560" width="165" height="60" as="geometry" />
        </mxCell>
        <mxCell id="nd2t0F2UOYA8sy0b7LYU-80" value="" style="edgeStyle=orthogonalEdgeStyle;rounded=0;orthogonalLoop=1;jettySize=auto;html=1;" edge="1" parent="WIyWlLk6GJQsqaUBKTNV-1" source="nd2t0F2UOYA8sy0b7LYU-81" target="nd2t0F2UOYA8sy0b7LYU-85">
          <mxGeometry relative="1" as="geometry" />
        </mxCell>
        <mxCell id="nd2t0F2UOYA8sy0b7LYU-81" value="Selectează o variantă de răspuns" style="rounded=1;whiteSpace=wrap;html=1;fontSize=12;glass=0;strokeWidth=1;shadow=0;" vertex="1" parent="WIyWlLk6GJQsqaUBKTNV-1">
          <mxGeometry x="1420" y="660" width="165" height="60" as="geometry" />
        </mxCell>
        <mxCell id="nd2t0F2UOYA8sy0b7LYU-131" style="edgeStyle=orthogonalEdgeStyle;rounded=0;orthogonalLoop=1;jettySize=auto;html=1;entryX=1.008;entryY=0.327;entryDx=0;entryDy=0;entryPerimeter=0;" edge="1" parent="WIyWlLk6GJQsqaUBKTNV-1" source="nd2t0F2UOYA8sy0b7LYU-85" target="nd2t0F2UOYA8sy0b7LYU-99">
          <mxGeometry relative="1" as="geometry" />
        </mxCell>
        <mxCell id="nd2t0F2UOYA8sy0b7LYU-133" value="Nu" style="edgeLabel;html=1;align=center;verticalAlign=middle;resizable=0;points=[];" vertex="1" connectable="0" parent="nd2t0F2UOYA8sy0b7LYU-131">
          <mxGeometry x="-0.2123" relative="1" as="geometry">
            <mxPoint as="offset" />
          </mxGeometry>
        </mxCell>
        <mxCell id="nd2t0F2UOYA8sy0b7LYU-134" style="edgeStyle=orthogonalEdgeStyle;rounded=0;orthogonalLoop=1;jettySize=auto;html=1;entryX=0.544;entryY=0.017;entryDx=0;entryDy=0;entryPerimeter=0;" edge="1" parent="WIyWlLk6GJQsqaUBKTNV-1" source="nd2t0F2UOYA8sy0b7LYU-85" target="nd2t0F2UOYA8sy0b7LYU-94">
          <mxGeometry relative="1" as="geometry">
            <mxPoint x="1632" y="840" as="targetPoint" />
            <Array as="points">
              <mxPoint x="1632" y="800" />
            </Array>
          </mxGeometry>
        </mxCell>
        <mxCell id="nd2t0F2UOYA8sy0b7LYU-135" value="Da" style="edgeLabel;html=1;align=center;verticalAlign=middle;resizable=0;points=[];" vertex="1" connectable="0" parent="nd2t0F2UOYA8sy0b7LYU-134">
          <mxGeometry x="-0.2046" relative="1" as="geometry">
            <mxPoint as="offset" />
          </mxGeometry>
        </mxCell>
        <mxCell id="nd2t0F2UOYA8sy0b7LYU-85" value="Răspuns corect" style="rhombus;whiteSpace=wrap;html=1;rounded=1;glass=0;strokeWidth=1;shadow=0;" vertex="1" parent="WIyWlLk6GJQsqaUBKTNV-1">
          <mxGeometry x="1462.5" y="760" width="80" height="80" as="geometry" />
        </mxCell>
        <mxCell id="nd2t0F2UOYA8sy0b7LYU-86" value="" style="edgeStyle=orthogonalEdgeStyle;rounded=0;orthogonalLoop=1;jettySize=auto;html=1;" edge="1" parent="WIyWlLk6GJQsqaUBKTNV-1" source="nd2t0F2UOYA8sy0b7LYU-90" target="nd2t0F2UOYA8sy0b7LYU-92">
          <mxGeometry relative="1" as="geometry">
            <Array as="points">
              <mxPoint x="2210" y="995" />
            </Array>
          </mxGeometry>
        </mxCell>
        <mxCell id="nd2t0F2UOYA8sy0b7LYU-87" value="Da" style="edgeLabel;html=1;align=center;verticalAlign=middle;resizable=0;points=[];" vertex="1" connectable="0" parent="nd2t0F2UOYA8sy0b7LYU-86">
          <mxGeometry x="0.2296" y="2" relative="1" as="geometry">
            <mxPoint as="offset" />
          </mxGeometry>
        </mxCell>
        <mxCell id="nd2t0F2UOYA8sy0b7LYU-137" style="edgeStyle=orthogonalEdgeStyle;rounded=0;orthogonalLoop=1;jettySize=auto;html=1;entryX=0.834;entryY=0.988;entryDx=0;entryDy=0;entryPerimeter=0;" edge="1" parent="WIyWlLk6GJQsqaUBKTNV-1" source="nd2t0F2UOYA8sy0b7LYU-90" target="nd2t0F2UOYA8sy0b7LYU-108">
          <mxGeometry relative="1" as="geometry" />
        </mxCell>
        <mxCell id="nd2t0F2UOYA8sy0b7LYU-90" value="Utilizatorul a răspuns &lt;br&gt;în mod CONSISTENT la &lt;br&gt;toate întrebările de acum" style="rhombus;whiteSpace=wrap;html=1;rounded=1;glass=0;strokeWidth=1;shadow=0;" vertex="1" parent="WIyWlLk6GJQsqaUBKTNV-1">
          <mxGeometry x="1822.5" y="910" width="185" height="170" as="geometry" />
        </mxCell>
        <mxCell id="nd2t0F2UOYA8sy0b7LYU-91" value="" style="edgeStyle=orthogonalEdgeStyle;rounded=0;orthogonalLoop=1;jettySize=auto;html=1;entryX=0.5;entryY=0;entryDx=0;entryDy=0;" edge="1" parent="WIyWlLk6GJQsqaUBKTNV-1" source="nd2t0F2UOYA8sy0b7LYU-92" target="nd2t0F2UOYA8sy0b7LYU-97">
          <mxGeometry relative="1" as="geometry">
            <mxPoint x="2047.5" y="1490" as="targetPoint" />
          </mxGeometry>
        </mxCell>
        <mxCell id="nd2t0F2UOYA8sy0b7LYU-140" style="edgeStyle=orthogonalEdgeStyle;rounded=0;orthogonalLoop=1;jettySize=auto;html=1;entryX=0.498;entryY=0.033;entryDx=0;entryDy=0;entryPerimeter=0;" edge="1" parent="WIyWlLk6GJQsqaUBKTNV-1" source="nd2t0F2UOYA8sy0b7LYU-92" target="nd2t0F2UOYA8sy0b7LYU-109">
          <mxGeometry relative="1" as="geometry">
            <Array as="points">
              <mxPoint x="1940" y="1180" />
              <mxPoint x="2186" y="1180" />
            </Array>
          </mxGeometry>
        </mxCell>
        <mxCell id="nd2t0F2UOYA8sy0b7LYU-92" value="Marchează blocul ca finalizat" style="whiteSpace=wrap;html=1;rounded=1;glass=0;strokeWidth=1;shadow=0;" vertex="1" parent="WIyWlLk6GJQsqaUBKTNV-1">
          <mxGeometry x="1880" y="1090" width="120" height="60" as="geometry" />
        </mxCell>
        <mxCell id="nd2t0F2UOYA8sy0b7LYU-93" style="edgeStyle=orthogonalEdgeStyle;rounded=0;orthogonalLoop=1;jettySize=auto;html=1;entryX=0.5;entryY=0;entryDx=0;entryDy=0;" edge="1" parent="WIyWlLk6GJQsqaUBKTNV-1" source="nd2t0F2UOYA8sy0b7LYU-94" target="nd2t0F2UOYA8sy0b7LYU-90">
          <mxGeometry relative="1" as="geometry" />
        </mxCell>
        <mxCell id="nd2t0F2UOYA8sy0b7LYU-94" value="Actualizează starea chestionarului cu un raspuns corect" style="rounded=1;whiteSpace=wrap;html=1;fontSize=12;glass=0;strokeWidth=1;shadow=0;" vertex="1" parent="WIyWlLk6GJQsqaUBKTNV-1">
          <mxGeometry x="1542.5" y="845" width="165" height="60" as="geometry" />
        </mxCell>
        <mxCell id="nd2t0F2UOYA8sy0b7LYU-97" value="Deblochează blocurile de inițiere &lt;br&gt;dependente" style="whiteSpace=wrap;html=1;rounded=1;glass=0;strokeWidth=1;shadow=0;" vertex="1" parent="WIyWlLk6GJQsqaUBKTNV-1">
          <mxGeometry x="1880" y="1230" width="120" height="60" as="geometry" />
        </mxCell>
        <mxCell id="nd2t0F2UOYA8sy0b7LYU-136" style="edgeStyle=orthogonalEdgeStyle;rounded=0;orthogonalLoop=1;jettySize=auto;html=1;entryX=0.5;entryY=1;entryDx=0;entryDy=0;" edge="1" parent="WIyWlLk6GJQsqaUBKTNV-1" source="nd2t0F2UOYA8sy0b7LYU-99" target="nd2t0F2UOYA8sy0b7LYU-108">
          <mxGeometry relative="1" as="geometry">
            <Array as="points">
              <mxPoint x="1360" y="1000" />
              <mxPoint x="1720" y="1000" />
            </Array>
          </mxGeometry>
        </mxCell>
        <mxCell id="nd2t0F2UOYA8sy0b7LYU-99" value="&lt;span style=&quot;color: rgb(0, 0, 0); font-family: Helvetica; font-size: 12px; font-style: normal; font-variant-ligatures: normal; font-variant-caps: normal; font-weight: 400; letter-spacing: normal; orphans: 2; text-align: center; text-indent: 0px; text-transform: none; widows: 2; word-spacing: 0px; -webkit-text-stroke-width: 0px; background-color: rgb(251, 251, 251); text-decoration-thickness: initial; text-decoration-style: initial; text-decoration-color: initial; float: none; display: inline !important;&quot;&gt;Actualizează starea chestionarului cu un raspuns gresit&lt;/span&gt;" style="whiteSpace=wrap;html=1;rounded=1;glass=0;strokeWidth=1;shadow=0;" vertex="1" parent="WIyWlLk6GJQsqaUBKTNV-1">
          <mxGeometry x="1300" y="840" width="120" height="70" as="geometry" />
        </mxCell>
        <mxCell id="nd2t0F2UOYA8sy0b7LYU-100" value="" style="edgeStyle=orthogonalEdgeStyle;rounded=0;orthogonalLoop=1;jettySize=auto;html=1;" edge="1" parent="WIyWlLk6GJQsqaUBKTNV-1" source="nd2t0F2UOYA8sy0b7LYU-104" target="nd2t0F2UOYA8sy0b7LYU-106">
          <mxGeometry relative="1" as="geometry" />
        </mxCell>
        <mxCell id="nd2t0F2UOYA8sy0b7LYU-101" value="Nu" style="edgeLabel;html=1;align=center;verticalAlign=middle;resizable=0;points=[];" vertex="1" connectable="0" parent="nd2t0F2UOYA8sy0b7LYU-100">
          <mxGeometry x="-0.3368" y="-1" relative="1" as="geometry">
            <mxPoint as="offset" />
          </mxGeometry>
        </mxCell>
        <mxCell id="nd2t0F2UOYA8sy0b7LYU-102" style="edgeStyle=orthogonalEdgeStyle;rounded=0;orthogonalLoop=1;jettySize=auto;html=1;entryX=0;entryY=0.5;entryDx=0;entryDy=0;" edge="1" parent="WIyWlLk6GJQsqaUBKTNV-1" source="nd2t0F2UOYA8sy0b7LYU-104" target="nd2t0F2UOYA8sy0b7LYU-79">
          <mxGeometry relative="1" as="geometry" />
        </mxCell>
        <mxCell id="nd2t0F2UOYA8sy0b7LYU-103" value="Da" style="edgeLabel;html=1;align=center;verticalAlign=middle;resizable=0;points=[];" vertex="1" connectable="0" parent="nd2t0F2UOYA8sy0b7LYU-102">
          <mxGeometry x="0.122" y="1" relative="1" as="geometry">
            <mxPoint as="offset" />
          </mxGeometry>
        </mxCell>
        <mxCell id="nd2t0F2UOYA8sy0b7LYU-104" value="Există &lt;br&gt;un chestionar în progress" style="rhombus;whiteSpace=wrap;html=1;rounded=1;glass=0;strokeWidth=1;shadow=0;" vertex="1" parent="WIyWlLk6GJQsqaUBKTNV-1">
          <mxGeometry x="1367" y="330" width="135" height="130" as="geometry" />
        </mxCell>
        <mxCell id="nd2t0F2UOYA8sy0b7LYU-105" value="" style="edgeStyle=orthogonalEdgeStyle;rounded=0;orthogonalLoop=1;jettySize=auto;html=1;" edge="1" parent="WIyWlLk6GJQsqaUBKTNV-1" source="nd2t0F2UOYA8sy0b7LYU-106" target="nd2t0F2UOYA8sy0b7LYU-108">
          <mxGeometry relative="1" as="geometry" />
        </mxCell>
        <mxCell id="nd2t0F2UOYA8sy0b7LYU-106" value="Crează chestionar" style="whiteSpace=wrap;html=1;rounded=1;glass=0;strokeWidth=1;shadow=0;" vertex="1" parent="WIyWlLk6GJQsqaUBKTNV-1">
          <mxGeometry x="1640" y="437.5" width="160" height="75" as="geometry" />
        </mxCell>
        <mxCell id="nd2t0F2UOYA8sy0b7LYU-107" style="edgeStyle=orthogonalEdgeStyle;rounded=0;orthogonalLoop=1;jettySize=auto;html=1;" edge="1" parent="WIyWlLk6GJQsqaUBKTNV-1" source="nd2t0F2UOYA8sy0b7LYU-108" target="nd2t0F2UOYA8sy0b7LYU-79">
          <mxGeometry relative="1" as="geometry" />
        </mxCell>
        <mxCell id="nd2t0F2UOYA8sy0b7LYU-108" value="Crează întrebare" style="whiteSpace=wrap;html=1;rounded=1;glass=0;strokeWidth=1;shadow=0;" vertex="1" parent="WIyWlLk6GJQsqaUBKTNV-1">
          <mxGeometry x="1660" y="560" width="120" height="60" as="geometry" />
        </mxCell>
        <mxCell id="nd2t0F2UOYA8sy0b7LYU-112" value="" style="edgeStyle=orthogonalEdgeStyle;rounded=0;orthogonalLoop=1;jettySize=auto;html=1;" edge="1" parent="WIyWlLk6GJQsqaUBKTNV-1" source="nd2t0F2UOYA8sy0b7LYU-109" target="nd2t0F2UOYA8sy0b7LYU-111">
          <mxGeometry relative="1" as="geometry" />
        </mxCell>
        <mxCell id="nd2t0F2UOYA8sy0b7LYU-114" value="Da" style="edgeLabel;html=1;align=center;verticalAlign=middle;resizable=0;points=[];" vertex="1" connectable="0" parent="nd2t0F2UOYA8sy0b7LYU-112">
          <mxGeometry x="-0.1921" y="2" relative="1" as="geometry">
            <mxPoint as="offset" />
          </mxGeometry>
        </mxCell>
        <mxCell id="nd2t0F2UOYA8sy0b7LYU-109" value="Toate blocurile &lt;br&gt;de inițiere &lt;br&gt;sunt finalizate" style="rhombus;whiteSpace=wrap;html=1;rounded=1;glass=0;strokeWidth=1;shadow=0;" vertex="1" parent="WIyWlLk6GJQsqaUBKTNV-1">
          <mxGeometry x="2110" y="1280" width="152.5" height="130" as="geometry" />
        </mxCell>
        <mxCell id="nd2t0F2UOYA8sy0b7LYU-111" value="Deplocheză blocul epilog" style="whiteSpace=wrap;html=1;rounded=1;glass=0;strokeWidth=1;shadow=0;" vertex="1" parent="WIyWlLk6GJQsqaUBKTNV-1">
          <mxGeometry x="1880" y="1315" width="120" height="60" as="geometry" />
        </mxCell>
        <mxCell id="nd2t0F2UOYA8sy0b7LYU-141" value="" style="edgeStyle=orthogonalEdgeStyle;rounded=0;orthogonalLoop=1;jettySize=auto;html=1;entryX=0.367;entryY=1.033;entryDx=0;entryDy=0;entryPerimeter=0;" edge="1" parent="WIyWlLk6GJQsqaUBKTNV-1" source="nd2t0F2UOYA8sy0b7LYU-36" target="nd2t0F2UOYA8sy0b7LYU-14">
          <mxGeometry relative="1" as="geometry">
            <mxPoint x="127" y="930" as="sourcePoint" />
            <mxPoint x="415" y="692" as="targetPoint" />
            <Array as="points">
              <mxPoint x="276.2" y="1110" />
              <mxPoint x="276.2" y="920" />
              <mxPoint x="310.2" y="920" />
            </Array>
          </mxGeometry>
        </mxCell>
        <mxCell id="nd2t0F2UOYA8sy0b7LYU-14" value="Răspuns corect" style="rhombus;whiteSpace=wrap;html=1;rounded=1;glass=0;strokeWidth=1;shadow=0;" vertex="1" parent="WIyWlLk6GJQsqaUBKTNV-1">
          <mxGeometry x="260" y="800" width="80" height="80" as="geometry" />
        </mxCell>
      </root>
    </mxGraphModel>
  </diagram>
</mxfile>
